<svg id="Layer_1" data-name="Layer 1" xmlns="http://www.w3.org/2000/svg" viewBox="0 0 58.73 53.49"><defs><style>.cls-1{fill:#8B0325;}</style></defs><title>heart</title><path class="cls-1" d="M45.32.32c-6.48-1-13.48,2.46-15.73,8.57A13.85,13.85,0,0,0,23.39,2c-4.57-2.56-9.06-2.59-14-.53C5.66,3.06,2.7,7.25,1.12,10.89c-2,4.6-1,10.23.25,14.89a.7.7,0,0,0,1.34-.37C.66,17.63,1,9,8.09,3.84,11.42,1.39,17.15.53,20.85,2.22c3.88,1.77,7.74,5.24,8,9.77a.7.7,0,0,0,1.39,0c.73-8.3,10.91-12.73,18-9.35,7.58,3.59,10.78,13.77,8.28,21.48C55,29,48.79,27.78,44.68,27.81c-2.33,0-4.67,0-7,0-.31,0-1.61,0-1.57,0-.37-.23-1.31-3-1.53-3.58a.7.7,0,0,0-1.37.19c-.46,3.61-1.4,7.12-2.15,10.68-.72-6-1-12-2-17.94-.12-.69-1.2-.64-1.34,0L24.82,29.63l-1.29-5.78c-.14-.64-1.24-.69-1.34,0-.15,1-.39,3.56-1,4-.44.31-2.11,0-2.68,0l-7.59,0c-2.76,0-7.11-.57-7,3.58.06,2.17,2.08,4.37,3.36,6a38.46,38.46,0,0,0,6.43,6.17c4.82,3.77,10.19,6.69,15.4,9.87a.71.71,0,0,0,.7,0A77.12,77.12,0,0,0,53.52,33.18c.55-.69-.43-1.69-1-1A73.12,73.12,0,0,1,37.35,47.07c-1.87,1.29-6,5-8.28,4.69-1.09-.15-2.6-1.55-3.55-2.11-1.46-.87-2.92-1.74-4.36-2.64a65.73,65.73,0,0,1-9.07-6.62c-1.67-1.5-10-9.51-4.53-11.21,2.08-.64,5.48,0,7.66.05l6.49,0a.71.71,0,0,0,.67-.51c.17-.53.32-1.05.47-1.58L24.13,33a.7.7,0,0,0,1.34,0l2.73-11.83c.79,6.19,1.07,12.44,2.1,18.61.14.85,1.28.52,1.37-.19.53-4.2,1.72-8.27,2.49-12.43a3.12,3.12,0,0,0,2.4,2.07c3.16.51,6.85,0,10,0,2.93,0,6.83.63,9.28-1.35,2.12-1.72,2.55-4.76,2.77-7.3C59.41,11.92,54.68,1.73,45.32.32Z"/></svg>