<svg id="Layer_1" data-name="Layer 1" xmlns="http://www.w3.org/2000/svg" viewBox="0 0 58.73 53.49"><defs><style>.cls-1{fill:#8B0325;}</style></defs><title>kettlebell</title><path class="cls-1" d="M46.83,31.6A17.22,17.22,0,0,0,42.32,23c1.83-3.09,3.86-5.68,4.23-9.43.32-3.2-.24-7.11-2.35-9.66s-4.88-3.29-8-3.5C32.07.16,27.88.08,23.73.13,17.4.21,9.16-1.16,4,3.41,1.47,5.61.25,9.24,0,12.49c-.3,4.28,2.64,7.49,4.8,10.89A22.93,22.93,0,0,0,.75,32.71,19.37,19.37,0,0,0,1.94,45.42a16.3,16.3,0,0,0,5,6.72c1.5,1,3.34,1,5.08,1,5.34.21,10.7.16,16,.07,3.45-.06,7.69.45,11.06-.49s5-4.77,6.27-7.67A24.12,24.12,0,0,0,46.83,31.6ZM7.1,3C11.86.61,18.5,1.59,23.73,1.53c2.63,0,5.27,0,7.9.11,3.64.16,7.89-.21,10.76,2.43,2.38,2.18,3,5.93,2.82,9-.25,3.63-2.18,6.09-3.93,9-.23-.19-.45-.4-.68-.57a28.12,28.12,0,0,0-4.22-2.65c2-3.15,5.07-7.68.92-10.62S26,6.53,21.41,6.58c-2,0-4,.2-6,.42s-4.57.13-6.24,1.39C5.07,11.46,7.43,15.88,9.8,19c-.42.24-.84.47-1.24.74a15.88,15.88,0,0,0-2.82,2.47c-2-3-4.43-5.88-4.27-9.66A11,11,0,0,1,7.1,3Zm16.84,13c-4.37,0-8.91.48-12.89,2.34-1.69-2.15-3.84-5-2-7.73,1.41-2.15,3.83-2,6-2.25A71.84,71.84,0,0,1,22.49,8a74,74,0,0,1,10.6.25c2.45.35,4.6,1.37,4.73,4.21.1,2.27-1.55,4-2.71,5.81A27.78,27.78,0,0,0,23.94,16.06ZM45.71,37.36a22.45,22.45,0,0,1-3.6,11.09c-2.56,4.08-7.52,3.28-11.75,3.37-5,.11-10.1.16-15.15.06-3.33-.06-6.3.22-8.88-2.27C4,47.33,2.8,44.11,1.87,41c-1.62-5.35,1-13.15,4.41-17.31,4.35-5.23,11.25-6.23,17.66-6.28,6.25.07,12.4,1.64,17.05,6.12C44.73,27.18,45.91,32.36,45.71,37.36Z"/><path class="cls-1" d="M25.13,24.49a7,7,0,0,0-7.95,5.17c-.91,3.49.46,7,4.2,7.73,3.54.71,8.44-.44,9.18-4.47C31.22,29.31,28.78,25.23,25.13,24.49ZM22.8,36.14c-7.39-.29-4.71-11.23,2-10.3a6,6,0,0,1,4.5,5.64C29.45,35.2,25.85,36.25,22.8,36.14Z"/><path class="cls-1" d="M13.21,21.49a15.83,15.83,0,0,0-7.73,9.78.7.7,0,0,0,1.34.37,14.43,14.43,0,0,1,7.09-8.95C14.7,22.27,14,21.06,13.21,21.49Z"/><path class="cls-1" d="M5.37,33.87a.7.7,0,0,0,0,1.39A.7.7,0,0,0,5.37,33.87Z"/></svg>