<svg id="Layer_1" data-name="Layer 1" xmlns="http://www.w3.org/2000/svg" viewBox="0 0 38.7 61.41"><defs><style>.cls-1{fill:#333;}</style></defs><title>rope</title><path class="cls-1" d="M35,37.73a114.16,114.16,0,0,0,2.15-18.55c.06-4.75-.27-10.08-3.49-13.89A13.52,13.52,0,0,0,23.8.65C18.13-1,13.69.67,9.13,4.13A16.15,16.15,0,0,0,2.49,16.39c-.59,7,.33,14.33,1.49,21.27-1.55.11-3.37.42-3.85,1.68a5.88,5.88,0,0,0,.2,3.08c.44,1,1.41.93,1.9,1.69.75,1.16,0,4.49-.09,5.69A23.52,23.52,0,0,0,2,55.17c.25,2.21.52,5.41,3.12,6,7.78,1.86,5.22-9.3,4.19-13.08-.21-.77-.53-1.53-.66-2.32-.49-2.88-.07-2,.8-3.67a3.54,3.54,0,0,0,.43-2.61c-.38-2.56-2.12-2-4.39-1.95H5.37A114.94,114.94,0,0,1,3.91,24.54c-.2-3.9-.5-8.19.63-12,0-.11.08-.22.12-.33a19.37,19.37,0,0,0,1,12.57c3.58,8,12.88,9.62,20.44,6.39,3.59-1.53,7-3.71,8.26-7.57,1.41-4.24,1.62-9.9-.18-14a15.42,15.42,0,0,0-3.75-5.15,10.39,10.39,0,0,1,3.63,4.08c2.06,4.28,1.84,9.38,1.57,14a130,130,0,0,1-2,15.06s0,0,0,0c-1.89-.17-3.94-.25-4.54,1.72a4.74,4.74,0,0,0,0,3c.69,1.42,1.34.75,1.4,2.5.13,3.78-5.29,15.76,1.78,16.41,6.85.63,5.23-9,4.64-13.28-.17-1.22-.6-3,.1-4.14.27-.45.9-.66,1.17-1.1a5.09,5.09,0,0,0,.55-2.75C38.56,37.75,36.83,37.9,35,37.73ZM8.41,39c1,.8-.32,2.43-.66,3.1-.69,1.35-.9,1.31-.64,3,.47,3,1.42,5.84,1.82,8.89.18,1.4.85,3.39-.07,4.69a2.82,2.82,0,0,1-3.73.72c-2.36-1.29-2-6.12-1.74-8.53.2-2.1.92-4.8.23-6.88-.4-1.2-.56-.62-1.35-1.54-2.42-2.83,1-3.38,3.23-3.5C6.18,39,7.86,38.6,8.41,39ZM20.66,2.11A13.27,13.27,0,0,1,25,3.43c4.43,2.24,7,5.8,6.59,10.89-.33,4.61-2.47,9.44-7.2,10.91-4,1.23-10.31,1.07-12.74-2.88C9.56,19,9.74,13.8,11,10.28A12.32,12.32,0,0,1,20.66,2.11ZM33.28,22.28c-2.05,7.66-11.85,10-18.69,8.51-8-1.72-10.44-11.52-8.51-18.58A13.77,13.77,0,0,1,16.15,2.32a13,13,0,0,0-4.75,4.15C6.81,13.16,7.52,25.37,16.88,27c4.18.72,9.13.1,12.22-3s4.29-8.28,3.77-12.56A10.76,10.76,0,0,0,32.6,10,18.74,18.74,0,0,1,33.28,22.28Zm2.95,20.28c-1.05,1.47-1.15,1.7-1,3.79.22,2.56,2.56,14.49-2.79,13.47-5.11-1-.77-11.76-.63-15a3.3,3.3,0,0,0-.47-2.22c-.42-.85-2-2.24-.79-3.41.54-.54,3.21-.15,4-.09C37.4,39.45,37.77,40.41,36.23,42.56Z"/></svg>