<svg id="Layer_1" data-name="Layer 1" xmlns="http://www.w3.org/2000/svg" viewBox="0 0 58.73 53.49"><defs><style>.cls-1{fill:#8B0325;}</style></defs><title>strong</title><path class="cls-1" d="M56.18,28.08c-4-5-14.54-5.88-17.25.48a10.44,10.44,0,0,0-5-3.63,12.1,12.1,0,0,0-12.89,3c0-.24,0-.47,0-.72,0-4.21-.12-9.11,1.41-13.15a6.68,6.68,0,0,0,4.57,1.56c3.41-.16,6.63-.43,8-4.05,1.28-3.39-.2-7.32-2.56-9.84C30.83,0,30.21-.09,27.8,0a59.9,59.9,0,0,0-7.1.68c-3.93.7-7.18,6.73-9.07,9.95C6,20.26.83,30.79,0,42a.7.7,0,0,0,.35.6c14.86,9.79,36.82,11.93,52.35,2.22C58.36,41.31,60.65,33.67,56.18,28.08ZM51.54,43.9c-8.13,4.75-18.12,6.33-27.41,5.52a51,51,0,0,1-13.85-3.2,46.4,46.4,0,0,1-7-3.39c-2.83-1.68-1.47-5.15-.81-7.92a71.35,71.35,0,0,1,6-15.4c2.43-4.8,4.89-9.71,8.33-13.88a10.81,10.81,0,0,1,3.34-3.13c1.76-.87,4-.85,5.95-1,1.76-.11,3.55-.38,5.07.82A8.84,8.84,0,0,1,33.81,6.8c.52,2,.36,4.89-1.47,6.24-1.29,1-3.09,1-4.66,1.13a7.69,7.69,0,0,1-1.44.12c-1.25-.15-3.47-1.54-2.35-3.11.48-.67,2.51-1,3.28-1a.7.7,0,0,0,0-1.39c-1.68,0-5.25.95-5.49,3.06a2.75,2.75,0,0,0,0,.53c-1.47,3.14-1.72,6.72-1.88,10.13-.08,1.87,0,3.77-.1,5.63-.26,3.47-2.66,6.23-5,8.63a.7.7,0,0,0,1,1c2.31-2.33,4.2-4.6,5-7.45a.64.64,0,0,0,.16-.13c3.31-4,8-5.79,13-3.82,1.85.73,3.93,2.17,4.61,4.15.2.59,1.21.73,1.34,0,1.47-7.89,13.49-5.72,16.3.09C58.6,35.84,56.29,41.13,51.54,43.9Z"/><path class="cls-1" d="M36.36,37.71a9.11,9.11,0,0,1-7.24,2.63c-2.85-.18-5.47-.58-7.87-2.21-.74-.5-1.44.7-.7,1.2,2.83,1.92,6.12,2.35,9.48,2.44,3,.08,5.12-1.14,7.33-3.08C38,38.1,37,37.12,36.36,37.71Z"/><path class="cls-1" d="M23.33,32.37a7.18,7.18,0,0,1,3-2.68.7.7,0,0,0-.7-1.2,8.49,8.49,0,0,0-3.49,3.18C21.72,32.46,22.93,33.17,23.33,32.37Z"/><path class="cls-1" d="M27.86,29a.7.7,0,0,0,0-1.39A.7.7,0,0,0,27.86,29Z"/></svg>